<svg width="56" height="56" viewBox="0 0 56 56" fill="none" xmlns="http://www.w3.org/2000/svg">
<path d="M14.0001 16.3333H25.6667C26.2856 16.3333 26.8791 16.5791 27.3167 17.0167C27.7542 17.4543 28.0001 18.0477 28.0001 18.6666C28.0001 19.2854 27.7542 19.8789 27.3167 20.3165C26.8791 20.7541 26.2856 20.9999 25.6667 20.9999H14.0001C13.3812 20.9999 12.7878 20.7541 12.3502 20.3165C11.9126 19.8789 11.6667 19.2854 11.6667 18.6666C11.6667 18.0477 11.9126 17.4543 12.3502 17.0167C12.7878 16.5791 13.3812 16.3333 14.0001 16.3333V16.3333ZM30.3334 34.9999H42.0001C42.6189 34.9999 43.2124 35.2457 43.65 35.6833C44.0876 36.1209 44.3334 36.7144 44.3334 37.3332C44.3334 37.9521 44.0876 38.5456 43.65 38.9832C43.2124 39.4207 42.6189 39.6666 42.0001 39.6666H30.3334C29.7146 39.6666 29.1211 39.4207 28.6835 38.9832C28.2459 38.5456 28.0001 37.9521 28.0001 37.3332C28.0001 36.7144 28.2459 36.1209 28.6835 35.6833C29.1211 35.2457 29.7146 34.9999 30.3334 34.9999ZM14.0001 25.6666H42.0001C42.6189 25.6666 43.2124 25.9124 43.65 26.35C44.0876 26.7876 44.3334 27.3811 44.3334 27.9999C44.3334 28.6188 44.0876 29.2122 43.65 29.6498C43.2124 30.0874 42.6189 30.3332 42.0001 30.3332H14.0001C13.3812 30.3332 12.7878 30.0874 12.3502 29.6498C11.9126 29.2122 11.6667 28.6188 11.6667 27.9999C11.6667 27.3811 11.9126 26.7876 12.3502 26.35C12.7878 25.9124 13.3812 25.6666 14.0001 25.6666Z" fill="black"/>
</svg>
