<svg width="22" height="22" viewBox="0 0 22 22" fill="none" xmlns="http://www.w3.org/2000/svg">
<path d="M11 8.25569L3.31853 0.57422C2.95461 0.209659 2.46078 0.00459547 1.94566 0.00414055C1.43055 0.00368564 0.936356 0.207877 0.571795 0.571795C0.207234 0.935712 0.0021705 1.42955 0.00171558 1.94466C0.00126067 2.45977 0.205452 2.95397 0.56937 3.31853L8.25084 11L0.56937 18.6815C0.204809 19.046 0 19.5405 0 20.0561C0 20.5716 0.204809 21.0661 0.56937 21.4306C0.933931 21.7952 1.42838 22 1.94395 22C2.45952 22 2.95397 21.7952 3.31853 21.4306L11 13.7492L18.6815 21.4306C19.046 21.7952 19.5405 22 20.0561 22C20.5716 22 21.0661 21.7952 21.4306 21.4306C21.7952 21.0661 22 20.5716 22 20.0561C22 19.5405 21.7952 19.046 21.4306 18.6815L13.7492 11L21.4306 3.31853C21.7952 2.95397 22 2.45952 22 1.94395C22 1.42838 21.7952 0.93393 21.4306 0.569369C21.0661 0.204808 20.5716 -4.33574e-08 20.0561 -4.33574e-08C19.5405 -4.33574e-08 19.046 0.204808 18.6815 0.569369L11 8.25569Z" fill="#FFFFFC"/>
</svg>
